<?xml version="1.0" encoding="UTF-8" standalone="no"?>
<!-- Created with Inkscape (http://www.inkscape.org/) -->
<svg
   xmlns:dc="http://purl.org/dc/elements/1.1/"
   xmlns:cc="http://creativecommons.org/ns#"
   xmlns:rdf="http://www.w3.org/1999/02/22-rdf-syntax-ns#"
   xmlns:svg="http://www.w3.org/2000/svg"
   xmlns="http://www.w3.org/2000/svg"
   xmlns:xlink="http://www.w3.org/1999/xlink"
   xmlns:sodipodi="http://sodipodi.sourceforge.net/DTD/sodipodi-0.dtd"
   xmlns:inkscape="http://www.inkscape.org/namespaces/inkscape"
   width="210mm"
   height="297mm"
   id="svg2"
   sodipodi:version="0.32"
   inkscape:version="0.46"
   sodipodi:docname="dibujo-1.svg"
   inkscape:output_extension="org.inkscape.output.svg.inkscape"
   inkscape:export-filename="/var/www/codigo/images/logoIDE.png"
   inkscape:export-xdpi="90"
   inkscape:export-ydpi="90">
  <defs
     id="defs4">
    <linearGradient
       inkscape:collect="always"
       id="linearGradient4812">
      <stop
         style="stop-color:#507e7c;stop-opacity:1;"
         offset="0"
         id="stop4814" />
      <stop
         style="stop-color:#507e7c;stop-opacity:0;"
         offset="1"
         id="stop4816" />
    </linearGradient>
    <linearGradient
       id="linearGradient3340">
      <stop
         style="stop-color:#349ee8;stop-opacity:1"
         offset="0"
         id="stop3342" />
      <stop
         style="stop-color:#349ee8;stop-opacity:0;"
         offset="1"
         id="stop3344" />
    </linearGradient>
    <linearGradient
       id="linearGradient3198">
      <stop
         style="stop-color:#349ee8;stop-opacity:1;"
         offset="0"
         id="stop3200" />
      <stop
         id="stop3338"
         offset="0.5"
         style="stop-color:#49a4ea;stop-opacity:1;" />
      <stop
         style="stop-color:#5eaaed;stop-opacity:1"
         offset="1"
         id="stop3202" />
    </linearGradient>
    <inkscape:perspective
       sodipodi:type="inkscape:persp3d"
       inkscape:vp_x="0 : 526.18109 : 1"
       inkscape:vp_y="0 : 1000 : 0"
       inkscape:vp_z="744.09448 : 526.18109 : 1"
       inkscape:persp3d-origin="372.04724 : 350.78739 : 1"
       id="perspective10" />
    <inkscape:perspective
       id="perspective2390"
       inkscape:persp3d-origin="372.04724 : 350.78739 : 1"
       inkscape:vp_z="744.09448 : 526.18109 : 1"
       inkscape:vp_y="0 : 1000 : 0"
       inkscape:vp_x="0 : 526.18109 : 1"
       sodipodi:type="inkscape:persp3d" />
    <linearGradient
       inkscape:collect="always"
       xlink:href="#linearGradient3198"
       id="linearGradient3346"
       x1="370.39758"
       y1="764.50507"
       x2="371.78571"
       y2="842.36688"
       gradientUnits="userSpaceOnUse" />
    <radialGradient
       inkscape:collect="always"
       xlink:href="#linearGradient4812"
       id="radialGradient4820"
       cx="445.72186"
       cy="835.33868"
       fx="445.72186"
       fy="835.33868"
       r="45.817535"
       gradientTransform="matrix(1,0,0,0.1262662,0,729.86369)"
       gradientUnits="userSpaceOnUse" />
    <filter
       inkscape:collect="always"
       id="filter5052">
      <feGaussianBlur
         inkscape:collect="always"
         stdDeviation="0.18674539"
         id="feGaussianBlur5054" />
    </filter>
  </defs>
  <sodipodi:namedview
     id="base"
     pagecolor="#ffffff"
     bordercolor="#666666"
     borderopacity="1.0"
     inkscape:pageopacity="0.0"
     inkscape:pageshadow="2"
     inkscape:zoom="3.959798"
     inkscape:cx="433.89415"
     inkscape:cy="247.90098"
     inkscape:document-units="px"
     inkscape:current-layer="layer1"
     showgrid="false"
     inkscape:window-width="1280"
     inkscape:window-height="947"
     inkscape:window-x="0"
     inkscape:window-y="25" />
  <metadata
     id="metadata7">
    <rdf:RDF>
      <cc:Work
         rdf:about="">
        <dc:format>image/svg+xml</dc:format>
        <dc:type
           rdf:resource="http://purl.org/dc/dcmitype/StillImage" />
      </cc:Work>
    </rdf:RDF>
  </metadata>
  <g
     inkscape:label="Capa 1"
     inkscape:groupmode="layer"
     id="layer1">
    <rect
       style="fill:url(#linearGradient3346);fill-opacity:1;stroke:none;stroke-width:0;stroke-linejoin:miter;stroke-miterlimit:4;stroke-dasharray:none;stroke-dashoffset:0;stroke-opacity:1;opacity:1"
       id="rect3176"
       width="316.42856"
       height="41.07143"
       x="213.57143"
       y="764.50507" />
    <image
       y="764.7193"
       x="213.42017"
       id="image2392"
       height="41"
       width="201"
       sodipodi:absref="/var/www/codigo/images/logo.gif"
       xlink:href="logo.gif" />
    <path
       style="opacity:1;fill:#349ee8;fill-opacity:1;stroke:none;stroke-width:0;stroke-linejoin:miter;stroke-miterlimit:4;stroke-dasharray:none;stroke-dashoffset:0;stroke-opacity:1"
       d="M 245.33602,805.37034 C 245.33602,805.03362 245.50438,804.86526 245.8411,804.86526 C 246.27669,804.86526 246.34617,804.6969 246.34617,803.64136 C 246.34617,802.96822 246.42001,801.37723 246.51026,800.10583 L 246.67434,797.79419 L 253.58132,797.79419 L 260.48831,797.79419 L 260.48831,794.89 L 260.48831,791.98582 L 262.00354,791.98582 C 263.35041,791.98582 263.51877,792.04193 263.51877,792.49089 C 263.51877,792.82761 263.68713,792.99597 264.02384,792.99597 C 264.36056,792.99597 264.52892,792.82761 264.52892,792.49089 C 264.52892,792.00308 264.69728,791.98582 269.45341,791.98582 L 274.37791,791.98582 L 274.37791,794.38493 C 274.37791,796.61568 274.41335,796.78404 274.88298,796.78404 C 275.2197,796.78404 275.38806,796.9524 275.38806,797.28912 C 275.38806,797.71001 275.55642,797.79419 276.39821,797.79419 C 277.24,797.79419 277.40836,797.87837 277.40836,798.29927 C 277.40836,798.7914 277.57672,798.80435 283.97436,798.80435 L 290.54035,798.80435 L 290.54035,797.79419 L 290.54035,796.78404 L 284.10062,796.78404 C 277.82926,796.78404 277.6609,796.77083 277.6609,796.27896 C 277.6609,795.94225 277.49254,795.77389 277.15583,795.77389 C 276.69565,795.77389 276.65075,795.60553 276.65075,793.87985 L 276.65075,791.98582 L 288.01497,791.98582 C 297.94813,791.98582 299.37918,792.03352 299.37918,792.36462 C 299.37918,792.57297 299.19808,792.74343 298.97673,792.74343 C 298.75539,792.74343 298.51485,792.97071 298.4422,793.24851 C 298.3691,793.52805 298.09773,793.75358 297.8345,793.75358 C 297.53658,793.75358 297.35888,793.93179 297.35888,794.23055 C 297.35888,794.57276 297.11702,794.7529 296.50282,794.86812 C 295.58497,795.04031 295.34834,795.46949 295.34202,796.97344 C 295.33905,797.68147 295.42528,797.79419 295.96992,797.79419 C 296.4329,797.79419 296.60126,797.92888 296.60126,798.29927 C 296.60126,798.79293 296.76962,798.80435 304.05114,798.80435 L 311.50101,798.80435 L 311.50101,797.79419 L 311.50101,796.78404 L 304.55621,796.78404 C 297.77977,796.78404 297.61141,796.7718 297.61141,796.27896 C 297.61141,795.87009 297.77977,795.77389 298.4953,795.77389 C 299.11261,795.77389 299.37918,795.65964 299.37918,795.39508 C 299.37918,795.18463 299.60366,795.01627 299.88426,795.01627 C 300.22097,795.01627 300.38933,794.84791 300.38933,794.5112 C 300.38933,794.16695 300.55769,794.00612 300.91805,794.00612 C 301.23438,794.00612 301.49983,793.80323 301.57885,793.50104 C 301.6515,793.22325 301.87878,792.99597 302.08393,792.99597 C 302.28908,792.99597 302.51636,792.76868 302.589,792.49089 C 302.66211,792.21135 302.93347,791.98582 303.19671,791.98582 C 303.50397,791.98582 303.67233,791.80703 303.67233,791.48074 C 303.67233,791.14402 303.84069,790.97566 304.17741,790.97566 C 304.51412,790.97566 304.68248,791.14402 304.68248,791.48074 C 304.68248,791.97619 304.85084,791.98582 313.52132,791.98582 L 322.36015,791.98582 L 322.36015,791.37812 C 322.36015,790.89474 322.46349,790.79743 322.86523,790.90249 C 323.24814,791.00262 323.3703,791.24696 323.3703,791.91264 C 323.3703,792.57833 323.49247,792.82266 323.87538,792.9228 C 324.24381,793.01914 324.38139,793.26895 324.3839,793.84617 C 324.38902,795.01816 324.64671,795.77389 325.04126,795.77389 C 325.2334,795.77389 325.39061,796.00117 325.39061,796.27896 C 325.39061,796.61568 325.55897,796.78404 325.89569,796.78404 C 326.2324,796.78404 326.40076,796.9524 326.40076,797.28912 C 326.40076,797.65951 326.56912,797.79419 327.03211,797.79419 C 327.49509,797.79419 327.66345,797.92888 327.66345,798.29927 C 327.66345,798.70814 327.83181,798.80435 328.54734,798.80435 C 329.26286,798.80435 329.43122,798.70814 329.43122,798.29927 C 329.43122,797.92888 329.59958,797.79419 330.06257,797.79419 C 330.52555,797.79419 330.69391,797.65951 330.69391,797.28912 C 330.69391,796.9524 330.86227,796.78404 331.19899,796.78404 C 331.60786,796.78404 331.70406,796.61568 331.70406,795.90016 C 331.70406,795.18463 331.80027,795.01627 332.20914,795.01627 C 332.63004,795.01627 332.71422,794.84791 332.71422,794.00612 C 332.71422,793.27657 332.81944,792.99597 333.09302,792.99597 C 333.3666,792.99597 333.47183,792.71537 333.47183,791.98582 C 333.47183,791.14402 333.55601,790.97566 333.97691,790.97566 C 334.32071,790.97566 334.48198,791.14402 334.48198,791.50294 C 334.48198,791.97818 334.58167,792.01337 335.49214,791.85955 L 336.50229,791.68889 L 336.50229,792.8475 C 336.50229,793.83776 336.57568,794.00612 337.00736,794.00612 C 337.41624,794.00612 337.51244,794.17448 337.51244,794.89 C 337.51244,795.60553 337.60864,795.77389 338.01752,795.77389 C 338.43841,795.77389 338.52259,795.94225 338.52259,796.78404 C 338.52259,797.79419 338.52259,797.79419 339.53275,797.79419 C 340.37454,797.79419 340.5429,797.87837 340.5429,798.29927 C 340.5429,798.72017 340.71126,798.80435 341.55305,798.80435 C 342.39484,798.80435 342.5632,798.72017 342.5632,798.29927 C 342.5632,797.96255 342.73156,797.79419 343.06828,797.79419 C 343.405,797.79419 343.57336,797.62583 343.57336,797.28912 C 343.57336,796.9524 343.74172,796.78404 344.07843,796.78404 C 344.4873,796.78404 344.58351,796.61568 344.58351,795.90016 C 344.58351,795.18463 344.67971,795.01627 345.08858,795.01627 C 345.50948,795.01627 345.59366,794.84791 345.59366,794.00612 C 345.59366,793.25019 345.69494,792.99597 345.99611,792.99597 C 346.21745,792.99597 346.458,792.76868 346.53064,792.49089 C 346.65835,792.00255 346.87511,791.98582 353.07299,791.98582 L 359.48326,791.98582 L 359.48326,792.99597 C 359.48326,793.83776 359.56744,794.00612 359.98833,794.00612 C 360.32505,794.00612 360.49341,794.17448 360.49341,794.5112 C 360.49341,794.84791 360.66177,795.01627 360.99849,795.01627 C 361.27908,795.01627 361.50356,795.18463 361.50356,795.39508 C 361.50356,795.60553 361.72804,795.77389 362.00864,795.77389 C 362.34536,795.77389 362.51372,795.94225 362.51372,796.27896 C 362.51372,796.69986 362.68208,796.78404 363.52387,796.78404 C 364.36566,796.78404 364.53402,796.86822 364.53402,797.28912 C 364.53402,797.7521 364.70238,797.79419 366.55433,797.79419 C 368.40627,797.79419 368.57463,797.83628 368.57463,798.29927 C 368.57463,798.7689 368.74299,798.80435 370.97374,798.80435 C 373.2045,798.80435 373.37286,798.7689 373.37286,798.29927 C 373.37286,797.83381 373.54122,797.79419 375.51943,797.79419 C 377.49764,797.79419 377.666,797.75458 377.666,797.28912 C 377.666,796.86567 377.83436,796.78404 378.70772,796.78404 C 379.74341,796.78404 379.74851,796.77939 379.58898,795.98171 C 379.39306,795.00208 379.44868,795.05714 378.45372,794.85814 C 377.76006,794.71941 377.61546,794.77619 377.49566,795.23432 C 377.36419,795.73703 377.19267,795.77389 374.9849,795.77389 C 372.7836,795.77389 372.61524,795.80977 372.61524,796.27896 C 372.61524,796.74195 372.44688,796.78404 370.59494,796.78404 C 368.74299,796.78404 368.57463,796.74195 368.57463,796.27896 C 368.57463,795.81598 368.40627,795.77389 366.55433,795.77389 C 364.70238,795.77389 364.53402,795.7318 364.53402,795.26881 C 364.53402,794.93209 364.36566,794.76374 364.02894,794.76374 C 363.69223,794.76374 363.52387,794.59538 363.52387,794.25866 C 363.52387,793.92194 363.35551,793.75358 363.01879,793.75358 C 362.60992,793.75358 362.51372,793.58522 362.51372,792.8697 L 362.51372,791.98582 L 371.19471,791.98582 C 375.96926,791.98582 380.22464,791.91603 380.65111,791.83074 C 381.17316,791.72633 381.46102,791.49942 381.53217,791.13626 C 381.61595,790.70859 381.64496,790.74072 381.67222,791.29134 L 381.70661,791.98582 L 384.10573,791.98582 L 386.50484,791.98582 L 386.50484,795.39508 L 386.50484,798.80435 L 387.51499,798.80435 L 388.52514,798.80435 L 388.52514,797.28912 C 388.52514,795.94225 388.58126,795.77389 389.03022,795.77389 C 389.36694,795.77389 389.5353,795.94225 389.5353,796.27896 C 389.5353,796.69986 389.70366,796.78404 390.54545,796.78404 C 391.38724,796.78404 391.5556,796.86822 391.5556,797.28912 C 391.5556,797.7521 391.72396,797.79419 393.57591,797.79419 C 395.42785,797.79419 395.59621,797.83628 395.59621,798.29927 C 395.59621,798.75945 395.76457,798.80435 397.49025,798.80435 C 399.21592,798.80435 399.38428,798.75945 399.38428,798.29927 C 399.38428,797.83628 399.55264,797.79419 401.40459,797.79419 C 403.25653,797.79419 403.42489,797.7521 403.42489,797.28912 C 403.42489,796.86822 403.59325,796.78404 404.43505,796.78404 C 405.27684,796.78404 405.4452,796.69986 405.4452,796.27896 C 405.4452,795.90857 405.61356,795.77389 406.07654,795.77389 C 406.44572,795.77389 406.70789,795.62882 406.70789,795.42453 C 406.70789,795.23239 406.93517,795.01575 407.21297,794.9431 C 407.61428,794.83815 407.71804,794.59864 407.71804,793.77723 C 407.71804,793.02665 407.82182,792.74343 408.09685,792.74343 C 408.30519,792.74343 408.47544,792.54456 408.47518,792.30149 C 408.47474,791.90079 408.75753,791.86682 411.50564,791.93753 L 414.53657,792.01552 L 414.53657,793.63903 L 414.53657,795.26254 L 419.90301,795.12303 C 427.47666,794.92616 523.2551,793.24851 526.92117,793.24851 L 529.9465,793.24851 L 529.9465,799.30942 L 529.9465,805.37034 L 472.24154,805.37034 C 433.93992,805.37034 414.53657,805.45525 414.53657,805.62287 C 414.53657,805.79073 386.16812,805.87541 329.9363,805.87541 C 245.50438,805.87541 245.33602,805.87441 245.33602,805.37034 z"
       id="path3350" />
    <path
       style="opacity:1;fill:#349ee8;fill-opacity:1;stroke:none;stroke-width:0;stroke-linejoin:miter;stroke-miterlimit:4;stroke-dasharray:none;stroke-dashoffset:0;stroke-opacity:1"
       d="M 221.84997,797.29318 L 221.84997,788.70282 L 222.73386,788.70282 C 223.44938,788.70282 223.61774,788.79902 223.61774,789.2079 C 223.61774,789.48849 223.7861,789.71297 223.99655,789.71297 C 224.207,789.71297 224.37535,789.48849 224.37535,789.2079 C 224.37535,788.71272 224.54371,788.70282 232.96165,788.70282 C 241.37959,788.70282 241.54795,788.71272 241.54795,789.2079 C 241.54795,789.48849 241.71631,789.71297 241.92676,789.71297 C 242.1372,789.71297 242.30556,789.48849 242.30556,789.2079 C 242.30556,788.83751 242.47392,788.70282 242.93691,788.70282 C 243.39989,788.70282 243.56825,788.83751 243.56825,789.2079 C 243.56825,789.48849 243.73661,789.71297 243.94706,789.71297 C 244.2135,789.71297 244.32587,789.44378 244.32587,788.80545 C 244.32587,788.11628 244.44504,787.86676 244.82117,787.7684 C 245.25282,787.65552 245.32715,787.37462 245.39967,785.58233 C 245.44543,784.45123 245.50137,788.28401 245.52398,794.09961 C 245.54659,799.91521 245.62908,804.73742 245.7073,804.81564 C 245.78552,804.89386 245.98389,804.82348 246.14814,804.65923 C 246.37008,804.43729 246.44396,801.19928 246.43586,792.04916 C 246.42987,785.27787 246.47196,779.99341 246.5294,780.30593 C 246.63347,780.8721 246.6514,780.87414 251.54077,780.87414 L 256.4477,780.87414 L 256.4477,781.75802 C 256.4477,782.47354 256.5439,782.6419 256.95277,782.6419 C 257.23337,782.6419 257.45785,782.47354 257.45785,782.2631 C 257.45785,782.05265 257.68233,781.88429 257.96293,781.88429 C 258.29964,781.88429 258.468,781.71593 258.468,781.37921 C 258.468,781.0425 258.63636,780.87414 258.97308,780.87414 C 259.46747,780.87414 259.47816,781.0425 259.47816,788.82909 C 259.47816,796.61568 259.48885,796.78404 259.98323,796.78404 C 260.48245,796.78404 260.48831,796.61568 260.48831,782.2631 L 260.48831,767.74215 L 259.47816,767.74215 C 258.63636,767.74215 258.468,767.65798 258.468,767.23708 C 258.468,766.73807 258.29964,766.732 244.45214,766.732 C 230.60463,766.732 230.43627,766.73807 230.43627,767.23708 C 230.43627,767.57379 230.26791,767.74215 229.93119,767.74215 C 229.45017,767.74215 229.42612,767.91051 229.42612,771.27769 L 229.42612,774.81322 L 225.63805,774.81322 L 221.84997,774.81322 L 221.84997,769.76246 L 221.84997,764.7117 L 375.89824,764.7117 L 529.9465,764.7117 L 529.9465,785.02194 L 529.9465,805.33216 L 472.55721,805.48803 C 440.9931,805.57378 371.67138,805.69785 318.50895,805.76375 L 221.84997,805.88357 L 221.84997,797.29318 z M 290.54035,797.79419 L 290.54035,796.78404 L 284.13008,796.78404 C 277.9322,796.78404 277.71543,796.76731 277.58773,796.27896 C 277.51508,796.00117 277.27455,795.77389 277.0532,795.77389 C 276.70484,795.77389 276.65075,795.31574 276.65075,792.36462 L 276.65075,788.95536 L 281.79621,788.95536 C 284.62622,788.95536 287.29681,788.88433 287.73086,788.79752 C 288.45182,788.65333 288.52004,788.55509 288.52004,787.6611 L 288.52004,786.68251 L 282.5854,786.68251 L 276.65075,786.68251 L 276.65075,782.76817 C 276.65075,779.02219 276.67247,778.85383 277.15583,778.85383 C 277.49254,778.85383 277.6609,778.68547 277.6609,778.34876 C 277.6609,777.85689 277.82926,777.84368 284.10062,777.84368 L 290.54035,777.84368 L 290.54035,776.83353 L 290.54035,775.82337 L 283.97436,775.82337 C 277.57672,775.82337 277.40836,775.83633 277.40836,776.32845 C 277.40836,776.74935 277.24,776.83353 276.39821,776.83353 C 275.55642,776.83353 275.38806,776.91771 275.38806,777.3386 C 275.38806,777.67532 275.2197,777.84368 274.88298,777.84368 C 274.38702,777.84368 274.37791,778.01204 274.37791,787.17871 C 274.37791,796.25527 274.39189,796.52122 274.88298,796.78404 C 275.16077,796.93271 275.38806,797.22081 275.38806,797.42427 C 275.38806,797.68749 275.67944,797.79419 276.39821,797.79419 C 277.10136,797.79419 277.40836,797.90293 277.40836,798.15196 C 277.40836,798.34872 277.55042,798.56704 277.72404,798.63709 C 277.89766,798.70715 280.85235,798.77344 284.29003,798.78441 L 290.54035,798.80435 L 290.54035,797.79419 z M 311.50101,797.79419 L 311.50101,796.78404 L 304.87189,796.78017 C 301.22587,796.77805 298.08615,796.67711 297.89473,796.55587 C 297.40227,796.24395 297.77701,795.77389 298.51813,795.77389 C 298.86153,795.77389 299.20791,795.60342 299.28786,795.39508 C 299.36781,795.18674 299.58753,795.01627 299.77612,795.01627 C 299.96472,795.01627 300.24066,794.78899 300.38933,794.5112 C 300.538,794.23341 300.81845,794.00612 301.01255,794.00612 C 301.20664,794.00612 301.43369,793.79111 301.5171,793.52831 C 301.60051,793.26551 301.89227,792.99205 302.16547,792.92061 C 302.43866,792.84917 302.66218,792.60961 302.66218,792.38827 C 302.66218,792.16692 302.84328,791.98582 303.06463,791.98582 C 303.28597,791.98582 303.52651,791.75853 303.59916,791.48074 C 303.69929,791.09783 303.94362,790.97566 304.60931,790.97566 C 305.275,790.97566 305.51933,790.8535 305.61946,790.47059 C 305.69257,790.19105 305.96393,789.96551 306.22716,789.96551 C 306.53443,789.96551 306.70279,789.78673 306.70279,789.46043 C 306.70279,789.17984 306.87115,788.95536 307.08159,788.95536 C 307.29204,788.95536 307.4604,788.73088 307.4604,788.45028 C 307.4604,788.11357 307.62876,787.94521 307.96548,787.94521 C 308.29446,787.94521 308.47055,787.77685 308.47055,787.46233 C 308.47055,787.09577 308.7139,786.93834 309.48071,786.80878 L 310.49086,786.63812 L 310.49086,785.14509 C 310.49086,783.82042 310.4339,783.65206 309.98578,783.65206 C 309.70799,783.65206 309.48071,783.49861 309.48071,783.31106 C 309.48071,782.87699 306.41731,782.6419 300.76091,782.6419 L 296.6644,782.6419 L 296.50656,783.43109 C 296.19157,785.00604 295.85943,784.91475 301.90456,784.91475 C 306.46655,784.91475 307.4604,784.97724 307.4604,785.2641 C 307.4604,785.45625 307.23312,785.67289 306.95533,785.74554 C 306.67753,785.81819 306.45025,786.04546 306.45025,786.25061 C 306.45025,786.45576 306.22297,786.68304 305.94517,786.75569 C 305.66738,786.82834 305.4401,787.06887 305.4401,787.29022 C 305.4401,787.52431 305.22881,787.69267 304.93502,787.69267 C 304.5983,787.69267 304.42994,787.86103 304.42994,788.19774 C 304.42994,788.53446 304.26158,788.70282 303.92487,788.70282 C 303.59807,788.70282 303.41979,788.87118 303.41979,789.17979 C 303.41979,789.52495 303.17554,789.70258 302.53591,789.82258 C 302.00682,789.92184 301.65202,790.13586 301.65202,790.35576 C 301.65202,790.57926 301.40477,790.72312 301.02068,790.72312 C 300.55769,790.72312 300.38933,790.85781 300.38933,791.2282 C 300.38933,791.56492 300.22097,791.73328 299.88426,791.73328 C 299.54754,791.73328 299.37918,791.90164 299.37918,792.23835 C 299.37918,792.53214 299.21082,792.74343 298.97673,792.74343 C 298.75539,792.74343 298.51485,792.97071 298.4422,793.24851 C 298.36955,793.5263 298.15691,793.75358 297.96965,793.75358 C 297.7824,793.75358 297.50755,793.98087 297.35888,794.25866 C 297.21021,794.53645 296.9221,794.76374 296.71865,794.76374 C 295.99902,794.76374 295.33857,795.73056 295.33857,796.78404 C 295.33857,797.69318 295.40171,797.79419 295.96992,797.79419 C 296.34833,797.79419 296.60126,797.93853 296.60126,798.15448 C 296.60126,798.35264 296.80014,798.56674 297.0432,798.63026 C 297.28627,798.69378 300.63872,798.75894 304.49308,798.77505 L 311.50101,798.80435 L 311.50101,797.79419 z M 329.43122,798.29927 C 329.57989,798.02148 329.92481,797.79419 330.19772,797.79419 C 330.51531,797.79419 330.69391,797.62299 330.69391,797.31857 C 330.69391,797.05533 330.91945,796.78397 331.19899,796.71087 C 331.53803,796.6222 331.70406,796.3664 331.70406,795.93268 C 331.70406,795.54505 331.90611,795.17845 332.20914,795.01627 C 332.56027,794.82835 332.71422,794.4875 332.71422,793.89799 C 332.71422,793.37718 332.86037,792.99392 333.09302,792.90464 C 333.33078,792.81341 333.47183,792.42723 333.47183,791.86747 C 333.47183,791.14403 333.56718,790.97566 333.97691,790.97566 C 334.31362,790.97566 334.48198,790.8073 334.48198,790.47059 C 334.48198,790.13387 334.65034,789.96551 334.98706,789.96551 C 335.39593,789.96551 335.49214,790.13387 335.49214,790.84939 C 335.49214,791.56492 335.58834,791.73328 335.99721,791.73328 C 336.42003,791.73328 336.50229,791.90164 336.50229,792.76707 C 336.50229,793.58848 336.60605,793.828 337.00736,793.93295 C 337.38689,794.03219 337.51244,794.27741 337.51244,794.91946 C 337.51244,795.59666 337.61404,795.77389 338.00227,795.77389 C 338.386,795.77389 338.50908,795.97901 338.57048,796.72091 C 338.64416,797.61121 338.70403,797.67252 339.57001,797.74476 C 340.23152,797.79994 340.52737,797.9601 340.61965,798.31297 C 340.80402,799.01801 342.30495,799.00701 342.49003,798.29927 C 342.56313,798.01973 342.8345,797.79419 343.09773,797.79419 C 343.40499,797.79419 343.57336,797.61541 343.57336,797.28912 C 343.57336,796.9524 343.74172,796.78404 344.07843,796.78404 C 344.48399,796.78404 344.58351,796.61568 344.58351,795.92961 C 344.58351,795.28756 344.70905,795.04235 345.08858,794.9431 C 345.47546,794.84193 345.59366,794.59864 345.59366,793.90349 C 345.59366,793.29614 345.71002,792.99597 345.94545,792.99597 C 346.34801,792.99597 346.60381,792.45973 346.60381,791.61581 C 346.60381,791.24695 346.78837,790.98631 347.10889,790.90249 C 347.4918,790.80235 347.61397,790.55803 347.61397,789.89234 C 347.61397,789.22665 347.73613,788.98232 348.11904,788.88219 C 348.52035,788.77724 348.62412,788.53772 348.62412,787.71631 C 348.62412,786.96939 348.72841,786.68251 348.99994,786.68251 C 349.24312,786.68251 349.43278,786.32599 349.53729,785.67236 C 349.62626,785.11598 349.84126,784.66221 350.0159,784.66221 C 350.38429,784.66221 350.63606,783.87386 350.64098,782.70504 C 350.64371,782.0538 350.74874,781.88429 351.1495,781.88429 C 351.5704,781.88429 351.65458,781.71593 351.65458,780.87414 C 351.65458,780.03234 351.73875,779.86399 352.15965,779.86399 C 352.58055,779.86399 352.66473,779.69563 352.66473,778.85383 C 352.66473,777.99223 352.74365,777.84368 353.20137,777.84368 C 353.66773,777.84368 353.71734,777.74031 353.58018,777.0545 C 353.49337,776.62045 353.42234,776.16588 353.42234,776.04435 C 353.42234,775.92281 352.96777,775.82337 352.41219,775.82337 C 351.5704,775.82337 351.40204,775.90755 351.40204,776.32845 C 351.40204,776.66517 351.23368,776.83353 350.89696,776.83353 C 350.47606,776.83353 350.39189,777.00189 350.39189,777.84368 C 350.39189,778.68547 350.30771,778.85383 349.88681,778.85383 C 349.46591,778.85383 349.38173,779.02219 349.38173,779.86399 C 349.38173,780.70578 349.29755,780.87414 348.87666,780.87414 C 348.4711,780.87414 348.37158,781.0425 348.37158,781.72857 C 348.37158,782.37061 348.24603,782.61583 347.8665,782.71508 C 347.46519,782.82002 347.36143,783.05954 347.36143,783.88095 C 347.36143,784.61721 347.2557,784.91475 346.99406,784.91475 C 346.77416,784.91475 346.56014,785.26954 346.46088,785.79863 C 346.36591,786.30486 346.14522,786.68251 345.94436,786.68251 C 345.69708,786.68251 345.59366,787.01762 345.59366,787.81894 C 345.59366,788.787 345.51883,788.95536 345.08858,788.95536 C 344.66769,788.95536 344.58351,789.12372 344.58351,789.96551 C 344.58351,790.8073 344.49933,790.97566 344.07843,790.97566 C 343.65753,790.97566 343.57336,791.14402 343.57336,791.98582 C 343.57336,792.82761 343.48918,792.99597 343.06828,792.99597 C 342.64738,792.99597 342.5632,793.16433 342.5632,794.00612 C 342.5632,794.84791 342.47902,795.01627 342.05813,795.01627 C 341.77753,795.01627 341.55305,795.18463 341.55305,795.39508 C 341.55305,795.60553 341.32857,795.77389 341.04797,795.77389 C 340.6391,795.77389 340.5429,795.60553 340.5429,794.89 C 340.5429,794.17448 340.44669,794.00612 340.03782,794.00612 C 339.61692,794.00612 339.53275,793.83776 339.53275,792.99597 C 339.53275,792.15418 339.44857,791.98582 339.02767,791.98582 C 338.60677,791.98582 338.52259,791.81746 338.52259,790.97566 C 338.52259,790.13387 338.43841,789.96551 338.01752,789.96551 C 337.58727,789.96551 337.51244,789.79715 337.51244,788.82909 C 337.51244,787.86103 337.43761,787.69267 337.00736,787.69267 C 336.59849,787.69267 336.50229,787.52431 336.50229,786.80878 C 336.50229,786.09326 336.40608,785.9249 335.99721,785.9249 C 335.56696,785.9249 335.49214,785.75654 335.49214,784.78848 C 335.49214,783.82042 335.41731,783.65206 334.98706,783.65206 C 334.57819,783.65206 334.48198,783.4837 334.48198,782.76817 C 334.48198,782.05265 334.38578,781.88429 333.97691,781.88429 C 333.55601,781.88429 333.47183,781.71593 333.47183,780.87414 C 333.47183,780.14458 333.3666,779.86399 333.09302,779.86399 C 332.81944,779.86399 332.71422,779.58339 332.71422,778.85383 C 332.71422,778.02752 332.62634,777.84368 332.23134,777.84368 C 331.86478,777.84368 331.70735,777.60034 331.57779,776.83353 C 331.41268,775.85624 331.37499,775.82337 330.41917,775.82337 L 329.43122,775.82337 L 329.43122,777.3386 C 329.43122,778.68547 329.48734,778.85383 329.9363,778.85383 C 330.35719,778.85383 330.44137,779.02219 330.44137,779.86399 C 330.44137,780.70578 330.52555,780.87414 330.94645,780.87414 C 331.35783,780.87414 331.45152,781.0425 331.45152,781.78166 C 331.45152,782.4768 331.56973,782.7201 331.9566,782.82127 C 332.32503,782.91762 332.46261,783.16743 332.46512,783.74465 C 332.47024,784.91664 332.72793,785.67236 333.12248,785.67236 C 333.36169,785.67236 333.47183,785.99081 333.47183,786.68251 C 333.47183,787.52431 333.38765,787.69267 332.96675,787.69267 C 332.54586,787.69267 332.46168,787.86103 332.46168,788.70282 C 332.46168,789.54461 332.3775,789.71297 331.9566,789.71297 C 331.5357,789.71297 331.45152,789.88133 331.45152,790.72312 C 331.45152,791.56492 331.36735,791.73328 330.94645,791.73328 C 330.52555,791.73328 330.44137,791.90164 330.44137,792.74343 C 330.44137,793.58522 330.35719,793.75358 329.9363,793.75358 C 329.5154,793.75358 329.43122,793.92194 329.43122,794.76374 C 329.43122,795.74352 329.40549,795.77389 328.57544,795.77389 C 327.79735,795.77389 327.70461,795.69365 327.55385,794.89 C 327.45459,794.36092 327.24057,794.00612 327.02067,794.00612 C 326.79717,794.00612 326.6533,793.75887 326.6533,793.37478 C 326.6533,792.91179 326.51861,792.74343 326.14822,792.74343 C 325.74746,792.74343 325.64244,792.57392 325.6397,791.92268 C 325.63479,790.75386 325.38301,789.96551 325.01463,789.96551 C 324.83999,789.96551 324.62499,789.51174 324.53602,788.95536 C 324.43938,788.35104 324.23646,787.94521 324.03094,787.94521 C 323.82542,787.94521 323.6225,787.53937 323.52587,786.93505 C 323.42923,786.33074 323.22631,785.9249 323.02079,785.9249 C 322.81526,785.9249 322.61235,785.51906 322.51571,784.91475 C 322.41119,784.26112 322.22154,783.9046 321.97836,783.9046 C 321.70826,783.9046 321.60254,783.62043 321.60254,782.89444 C 321.60254,782.05265 321.51836,781.88429 321.09746,781.88429 C 320.67656,781.88429 320.59239,781.71593 320.59239,780.87414 C 320.59239,780.03234 320.50821,779.86399 320.08731,779.86399 C 319.66641,779.86399 319.58223,779.69563 319.58223,778.85383 C 319.58223,778.01204 319.49805,777.84368 319.07716,777.84368 C 318.65626,777.84368 318.57208,777.67532 318.57208,776.83353 C 318.57208,775.82337 318.57208,775.82337 317.56193,775.82337 C 316.55177,775.82337 316.55177,775.82337 316.55177,776.83353 C 316.55177,777.67532 316.63595,777.84368 317.05685,777.84368 C 317.50581,777.84368 317.56193,778.01204 317.56193,779.35891 C 317.56193,780.70578 317.61805,780.87414 318.067,780.87414 C 318.4879,780.87414 318.57208,781.0425 318.57208,781.88429 C 318.57208,782.72608 318.65626,782.89444 319.07716,782.89444 C 319.49805,782.89444 319.58223,783.0628 319.58223,783.9046 C 319.58223,784.63415 319.68746,784.91475 319.96104,784.91475 C 320.22748,784.91475 320.33985,785.18394 320.33985,785.82227 C 320.33985,786.51741 320.45805,786.76071 320.84492,786.86188 C 321.24062,786.96535 321.35,787.20635 321.35,787.97466 C 321.35,788.787 321.43671,788.95536 321.85508,788.95536 C 322.27345,788.95536 322.36015,789.12372 322.36015,789.93606 C 322.36015,790.70437 322.46953,790.94536 322.86523,791.04884 C 323.23142,791.1446 323.3703,791.3933 323.3703,791.95329 C 323.3703,792.44829 323.53928,792.81609 323.84084,792.97748 C 324.14053,793.13786 324.36369,793.61929 324.45544,794.30333 C 324.53466,794.89405 324.7775,795.50752 324.99505,795.6666 C 325.21261,795.82569 325.39061,796.14218 325.39061,796.36994 C 325.39061,796.61568 325.59596,796.78404 325.89569,796.78404 C 326.2324,796.78404 326.40076,796.9524 326.40076,797.28912 C 326.40076,797.62282 326.56912,797.79419 326.89695,797.79419 C 327.16986,797.79419 327.51478,798.02148 327.66345,798.29927 C 327.8199,798.59159 328.19222,798.80435 328.54734,798.80435 C 328.90245,798.80435 329.27477,798.59159 329.43122,798.29927 z M 373.37286,798.29927 C 373.60656,797.86258 373.90162,797.79419 375.55196,797.79419 C 377.24837,797.79419 377.47545,797.738 377.59283,797.28912 C 377.69719,796.89001 377.9373,796.78404 378.73718,796.78404 C 379.73977,796.78404 379.74791,796.77637 379.58898,795.98171 C 379.39703,795.02194 379.48995,795.11434 378.50431,794.9033 C 377.84819,794.76281 377.65004,794.82676 377.42214,795.2526 C 377.17414,795.71601 376.90676,795.77389 375.01435,795.77389 C 373.14401,795.77389 372.85273,795.83521 372.61524,796.27896 C 372.38258,796.71369 372.08647,796.78404 370.48924,796.78404 C 368.84593,796.78404 368.61842,796.72623 368.50146,796.27896 C 368.384,795.82982 368.15699,795.77389 366.4517,795.77389 C 364.86538,795.77389 364.53402,795.70435 364.53402,795.37144 C 364.53402,795.15009 364.31724,794.9123 364.05229,794.84301 C 363.78734,794.77374 363.51388,794.50026 363.44459,794.23531 C 363.3753,793.97037 363.13751,793.75358 362.91617,793.75358 C 362.62689,793.75358 362.51372,793.51229 362.51372,792.89554 L 362.51372,792.0375 L 371.75178,791.94853 C 380.54966,791.86379 381.00691,791.83619 381.34822,791.36934 C 381.54533,791.09971 381.70661,790.43564 381.70661,789.8936 C 381.70661,789.12045 381.59777,788.87961 381.20154,788.77599 C 380.81863,788.67586 380.69646,788.43153 380.69646,787.76584 C 380.69646,787.10016 380.5743,786.85582 380.19139,786.75569 C 379.91185,786.68259 379.68631,786.41122 379.68631,786.14798 C 379.68631,785.85054 379.50813,785.67236 379.21069,785.67236 C 378.94745,785.67236 378.67609,785.44683 378.60298,785.16729 C 378.50284,784.78437 378.25852,784.66221 377.59283,784.66221 C 376.92714,784.66221 376.68281,784.54004 376.58268,784.15713 C 376.47045,783.728 376.23821,783.65206 375.038,783.65206 C 374.00778,783.65206 373.62539,783.55806 373.62539,783.30482 C 373.62539,782.8176 372.47919,782.6419 369.30068,782.6419 C 366.72269,782.6419 366.55433,782.67287 366.55433,783.14698 C 366.55433,783.53494 366.38597,783.65206 365.82828,783.65206 C 364.60029,783.65206 363.52387,783.95135 363.52387,784.29277 C 363.52387,784.47518 363.08061,784.6927 362.51372,784.78848 C 361.7469,784.91803 361.50356,785.07547 361.50356,785.44202 C 361.50356,785.75654 361.32747,785.9249 360.99849,785.9249 C 360.58962,785.9249 360.49341,786.09326 360.49341,786.80878 C 360.49341,787.52431 360.39721,787.69267 359.98833,787.69267 C 359.5111,787.69267 359.48326,787.86103 359.48326,790.74677 C 359.48326,793.58848 359.51838,793.81005 359.98833,793.93295 C 360.26787,794.00604 360.49341,794.27741 360.49341,794.54065 C 360.49341,794.84791 360.67219,795.01627 360.99849,795.01627 C 361.27908,795.01627 361.50356,795.18463 361.50356,795.39508 C 361.50356,795.60553 361.72804,795.77389 362.00864,795.77389 C 362.34536,795.77389 362.51372,795.94225 362.51372,796.27896 C 362.51372,796.69733 362.68208,796.78404 363.49441,796.78404 C 364.26273,796.78404 364.50372,796.89342 364.60719,797.28912 C 364.72442,797.73738 364.95166,797.79419 366.6275,797.79419 C 368.30334,797.79419 368.53058,797.851 368.6478,798.29927 C 368.76691,798.75471 368.99227,798.80435 370.94122,798.80435 C 372.84408,798.80435 373.13487,798.74395 373.37286,798.29927 z M 388.52514,797.28912 C 388.52514,795.94225 388.58126,795.77389 389.03022,795.77389 C 389.36694,795.77389 389.5353,795.94225 389.5353,796.27896 C 389.5353,796.69733 389.70366,796.78404 390.516,796.78404 C 391.28431,796.78404 391.5253,796.89342 391.62877,797.28912 C 391.746,797.73738 391.97324,797.79419 393.64908,797.79419 C 395.32492,797.79419 395.55216,797.851 395.66938,798.29927 C 395.78453,798.73958 396.01385,798.80435 397.45772,798.80435 C 398.85551,798.80435 399.15616,798.72553 399.38428,798.29927 C 399.61467,797.86879 399.91305,797.79419 401.40459,797.79419 C 402.89612,797.79419 403.19451,797.7196 403.42489,797.28912 C 403.60077,796.96049 403.95366,796.78404 404.43505,796.78404 C 404.91643,796.78404 405.26932,796.60759 405.4452,796.27896 C 405.59387,796.00117 405.83536,795.77389 405.98184,795.77389 C 406.54766,795.77389 407.71804,794.37844 407.71804,793.70382 C 407.71804,793.32831 407.90642,792.91565 408.13665,792.7868 C 408.94981,792.33173 408.90338,787.94521 408.08541,787.94521 C 407.86191,787.94521 407.71804,787.69796 407.71804,787.31386 C 407.71804,786.85087 407.58336,786.68251 407.21297,786.68251 C 406.87625,786.68251 406.70789,786.51416 406.70789,786.17744 C 406.70789,785.84072 406.53953,785.67236 406.20281,785.67236 C 405.8661,785.67236 405.69774,785.504 405.69774,785.16729 C 405.69774,784.7969 405.52938,784.66221 405.06639,784.66221 C 404.69721,784.66221 404.43505,784.51714 404.43505,784.31286 C 404.43505,783.87095 403.65395,783.6599 402.00225,783.6555 C 400.91986,783.65262 400.68408,783.56869 400.5738,783.14698 C 400.45233,782.68248 400.22934,782.6419 397.798,782.6419 C 394.71886,782.6419 393.57591,782.82136 393.57591,783.30482 C 393.57591,783.51893 393.29754,783.65206 392.84986,783.65206 C 391.59563,783.65206 390.54545,783.95416 390.54545,784.31497 C 390.54545,784.50595 390.31816,784.66221 390.04037,784.66221 C 389.70366,784.66221 389.5353,784.83057 389.5353,785.16729 C 389.5353,785.504 389.36694,785.67236 389.03022,785.67236 C 388.54438,785.67236 388.52514,785.504 388.52514,781.25294 L 388.52514,776.83353 L 387.51499,776.83353 L 386.50484,776.83353 L 386.50484,787.81894 L 386.50484,798.80435 L 387.51499,798.80435 L 388.52514,798.80435 L 388.52514,797.28912 z M 240.5378,790.34432 C 240.5378,790.01562 239.48555,789.96551 232.58284,789.96551 C 225.68014,789.96551 224.62789,790.01562 224.62789,790.34432 C 224.62789,790.67302 225.68014,790.72312 232.58284,790.72312 C 239.48555,790.72312 240.5378,790.67302 240.5378,790.34432 z M 248.36648,782.2631 C 248.36648,782.05475 248.19601,781.88429 247.98767,781.88429 C 247.77933,781.88429 247.60886,782.05475 247.60886,782.2631 C 247.60886,782.47144 247.77933,782.6419 247.98767,782.6419 C 248.19601,782.6419 248.36648,782.47144 248.36648,782.2631 z"
       id="path3352" />
    <flowRoot
       xml:space="preserve"
       id="flowRoot3354"
       style="fill:black;stroke:none;stroke-opacity:1;stroke-width:1px;stroke-linejoin:miter;stroke-linecap:butt;fill-opacity:1;font-family:Bitstream Vera Sans;font-style:normal;font-weight:normal;font-size:8"><flowRegion
         id="flowRegion3356"><rect
           id="rect3358"
           width="324.25897"
           height="50.255089"
           x="209.85919"
           y="760.17554" /></flowRegion><flowPara
         id="flowPara3360"></flowPara></flowRoot>    <text
       xml:space="preserve"
       style="font-size:11.95569992000000070px;font-style:normal;font-weight:normal;fill:#ffffff;fill-opacity:1;stroke:none;stroke-width:1px;stroke-linecap:butt;stroke-linejoin:miter;stroke-opacity:1;font-family:Bitstream Vera Sans;filter:url(#filter5052)"
       x="399.58325"
       y="838.63702"
       id="text3362"
       transform="scale(1.0494527,0.9528777)"><tspan
         sodipodi:role="line"
         id="tspan3364"
         x="399.58325"
         y="838.63702"
         style="font-style:italic;font-variant:normal;font-weight:normal;font-stretch:normal;font-family:Sans;-inkscape-font-specification:Sans Italic;fill-opacity:1;fill:#ffffff">IDE &amp; Deployer</tspan></text>
  </g>
</svg>
